<svg width="343" height="266" viewBox="0 0 343 266" fill="none" xmlns="http://www.w3.org/2000/svg">
<path d="M266.018 121.335C262.516 100.375 244.265 84.4022 222.277 84.4022H132.356C110.377 84.4022 92.1294 100.362 88.6149 121.31C88.2093 123.705 88 126.169 88 128.68V206.89C88 209.401 88.2093 211.861 88.6149 214.256C91.412 230.945 103.565 244.471 119.511 249.276C123.576 250.503 127.889 251.164 132.356 251.164H222.277C226.743 251.164 231.056 250.503 235.122 249.276C251.072 244.467 263.229 230.933 266.018 214.231C266.419 211.844 266.628 209.393 266.628 206.89V128.68C266.628 126.178 266.419 123.723 266.018 121.335ZM229.886 249.276C227.414 249.715 224.873 249.945 222.277 249.945H132.356C129.76 249.945 127.219 249.715 124.746 249.276C104.556 245.69 89.2256 228.077 89.2256 206.89V180.93C89.2256 107.575 148.793 85.6256 222.277 85.6256C246.097 85.6256 265.407 104.902 265.407 128.68V206.89C207.582 214.615 250.077 245.69 229.886 249.276Z" fill="#3F3D56"/>
<path d="M195.21 143.421L198.669 165.868L249.407 158.961L244.506 132.735L195.21 143.421Z" fill="#009EDD"/>
<path d="M235.03 17.4636H214.052V39.1398H235.03V17.4636Z" fill="#2F2E41"/>
<path d="M215.966 40.3962L221.155 24.8562H231.27L231.801 40.3962H215.966Z" fill="#FFB6B6"/>
<path opacity="0.1" d="M215.966 40.3962L221.155 24.8562H231.27L231.801 40.3962H215.966Z" fill="black"/>
<path d="M221.444 178.818L220.867 238.675L220.29 243.28V249.89L228.939 250.762L229.516 237.524C229.516 237.524 238.741 211.624 236.434 191.48C234.128 171.335 235.281 177.091 235.281 177.091L221.444 178.818Z" fill="#FFB6B6"/>
<path d="M226.934 183.518L205.658 239.485L204.517 243.983L202.108 250.14L193.734 247.812L198.021 235.272C198.021 235.272 198.866 207.796 208.356 189.869C217.845 171.943 214.673 176.885 214.673 176.885L226.934 183.518Z" fill="#FFB6B6"/>
<path d="M215.966 38.6696L200.399 45.5763L210.339 96.8078L208.768 170.338L198.39 192.21C198.39 192.21 196.651 204.718 214.525 196.66C232.399 188.602 252.578 186.3 252.578 186.3L247.678 152.63L243.353 64.2819L243.93 44.7129L231.245 36.6552L215.966 38.6696V38.6696Z" fill="#2F2E41"/>
<path d="M207.296 193.009L190.021 164.141L209.762 96.8077L200.399 45.5763L216.826 38.5563C216.826 38.5563 225.33 46.8227 225.33 53.641C225.33 60.4593 207.296 193.009 207.296 193.009Z" fill="#E6E6E6"/>
<path d="M244.773 187.253L229.092 52.7872C228.894 51.0893 229.184 49.3702 229.929 47.831L234.417 38.5563L252.002 43.5618L244.933 98.5344L263.822 152.63L244.773 187.253H244.773Z" fill="#E6E6E6"/>
<path d="M230.669 249.611C230.669 249.611 219.714 243.28 218.561 246.733C217.408 250.187 216.831 253.064 216.831 253.064C216.831 253.064 213.948 264 222.597 264C231.245 264 230.669 259.026 230.669 259.026V249.611Z" fill="#2F2E41"/>
<path d="M192.542 246.111C192.542 246.111 205.054 244.192 204.869 247.828C204.685 251.463 204.173 254.353 204.173 254.353C204.173 254.353 202.874 265.586 194.818 262.446C186.762 259.305 189.111 254.882 189.111 254.882L192.542 246.111Z" fill="#2F2E41"/>
<path d="M226.887 33.314C234.803 33.314 241.221 26.9079 241.221 19.0057C241.221 11.1034 234.803 4.69739 226.887 4.69739C218.971 4.69739 212.553 11.1034 212.553 19.0057C212.553 26.9079 218.971 33.314 226.887 33.314Z" fill="#FFB6B6"/>
<path d="M238.339 6.25495C237.672 2.72716 234.044 0.34103 230.46 0.0418153C226.876 -0.257399 223.365 1.09351 220.138 2.67741C217.95 3.7511 215.796 4.96128 214.024 6.63253C212.252 8.30378 210.875 10.487 210.557 12.8998C210.445 13.7535 210.46 14.6454 210.11 15.4324C209.672 16.4154 208.734 17.083 208.167 17.998C207.151 19.6389 207.618 22.0261 209.177 23.1651C207.217 23.9991 205.202 24.8691 203.708 26.3857C202.213 27.9022 201.35 30.2437 202.171 32.2072C202.461 32.9019 202.94 33.51 203.188 34.2207C203.659 35.5704 203.211 37.1038 202.376 38.2645C201.54 39.4253 200.362 40.286 199.203 41.1263C202.18 41.7087 205.218 42.1624 208.238 41.8907C211.259 41.6191 214.291 40.5623 216.478 38.4652C218.665 36.368 219.869 33.133 219.084 30.2086C218.483 27.9683 216.801 26.0053 216.802 23.686C216.803 21.9033 217.807 20.2951 218.777 18.798L225.13 8.9894C225.511 8.40127 225.913 7.79267 226.515 7.43295C227.539 6.82098 228.867 7.0901 229.947 7.59803C231.026 8.10597 232.013 8.83471 233.164 9.14965C235.513 9.79241 238.238 8.31631 238.979 5.99985" fill="#2F2E41"/>
<path d="M229.872 35.3536C228.677 36.5083 226.956 36.8802 225.361 37.348C223.765 37.8159 222.069 38.5518 221.351 40.0488C220.647 41.5167 221.158 43.3801 222.323 44.518C223.489 45.656 225.182 46.1353 226.812 46.1128C228.442 46.0902 230.031 45.6132 231.564 45.0594C235.756 43.5452 239.726 41.4211 243.311 38.7749C240.989 38.1337 239.47 35.4274 240.135 33.116C240.675 31.2358 242.329 29.9244 243.454 28.3227C245.391 25.565 245.713 21.9297 245.072 18.623C244.431 15.3163 242.92 12.2511 241.426 9.23132C240.954 8.27674 240.47 7.30601 239.733 6.5363C238.996 5.76661 237.953 5.21518 236.892 5.32545C235.131 5.50845 234.007 7.43768 233.995 9.20453C233.983 10.9714 234.76 12.6319 235.349 14.2981C235.955 16.0148 236.377 17.8344 236.214 19.6475C236.078 21.1669 235.524 22.6469 234.63 23.8838C233.939 24.8389 233.059 25.6405 232.308 26.5492C231.727 27.2516 231.212 28.0474 231.06 28.9453C230.782 30.5794 231.742 32.2328 231.479 33.8693C231.201 35.5992 229.377 36.9236 227.643 36.6555" fill="#2F2E41"/>
<path d="M186.034 235.198C213.101 235.198 235.043 213.295 235.043 186.276C235.043 159.257 213.101 137.353 186.034 137.353C158.968 137.353 137.026 159.257 137.026 186.276C137.026 213.295 158.968 235.198 186.034 235.198Z" fill="#009EDD"/>
<path d="M199.718 136.518C199.125 140.758 196.452 143.889 193.749 143.511C191.046 143.134 189.337 139.391 189.931 135.15C190.146 133.453 190.764 131.831 191.734 130.421L194.476 112.489L202.879 113.953L199.284 131.476C199.83 133.098 199.979 134.827 199.718 136.518Z" fill="#FFB6B6"/>
<path d="M207.029 44.7129C207.029 44.7129 198.381 41.8351 197.228 52.1951C196.074 62.5551 194.921 75.2174 194.921 75.2174C194.921 75.2174 189.732 87.3041 192.038 93.6352C194.345 99.9663 198.381 95.5522 194.345 100.925C190.309 106.297 190.871 123.974 190.871 123.974L203.858 123.322C203.858 123.322 211.065 75.7929 211.065 74.6418C211.065 73.4907 207.029 44.7129 207.029 44.7129V44.7129Z" fill="#E6E6E6"/>
<path d="M263.245 134.594C263.406 138.872 261.325 142.422 258.597 142.524C255.87 142.625 253.53 139.24 253.369 134.961C253.282 133.252 253.606 131.548 254.313 129.99L253.862 111.855L262.391 111.825L261.931 129.705C262.754 131.207 263.204 132.883 263.245 134.594V134.594Z" fill="#FFB6B6"/>
<path d="M249.931 44.5186C249.931 44.5186 258.629 41.7955 259.597 52.1744C260.564 62.5533 261.491 81.5653 261.491 81.5653C261.491 81.5653 266.463 93.7426 264.044 100.032C261.624 106.321 257.668 101.835 261.607 107.279C265.546 112.723 264.133 128.074 264.133 128.074L251.159 127.19C251.159 127.19 245.339 81.8528 245.36 80.7019C245.38 79.5509 249.931 44.5186 249.931 44.5186V44.5186Z" fill="#E6E6E6"/>
<path d="M220.873 182.332H213.642C212.517 175.702 209.045 169.699 203.861 165.417C191.93 155.562 174.27 157.246 164.415 169.177C164.382 169.215 164.349 169.254 164.318 169.294C163.531 170.315 163.72 171.78 164.741 172.568C165.761 173.355 167.227 173.166 168.014 172.146C172.295 166.959 178.775 163.659 186.02 163.659C197.112 163.66 206.672 171.464 208.894 182.332H202.518C202.245 182.332 201.981 182.427 201.771 182.602C201.276 183.015 201.209 183.75 201.621 184.246L210.799 195.263C210.844 195.317 210.894 195.367 210.948 195.412C211.443 195.824 212.179 195.758 212.592 195.263L221.769 184.246C221.944 184.036 222.04 183.772 222.04 183.499C222.04 182.855 221.518 182.332 220.873 182.332V182.332Z" fill="white"/>
<path d="M207.299 201.432C206.278 200.645 204.813 200.834 204.025 201.854C200.63 205.966 195.929 208.791 190.705 209.861C178.071 212.447 165.732 204.302 163.145 191.668H169.522C170.167 191.668 170.689 191.145 170.689 190.501C170.689 190.228 170.593 189.964 170.418 189.754L161.241 178.737C160.828 178.242 160.092 178.175 159.597 178.588C159.543 178.633 159.493 178.683 159.448 178.737L150.27 189.754C149.858 190.25 149.925 190.985 150.42 191.398C150.63 191.573 150.894 191.668 151.167 191.668H158.398C159.523 198.298 162.994 204.301 168.179 208.583C180.11 218.438 197.77 216.754 207.624 204.823C207.658 204.785 207.69 204.746 207.721 204.706C208.509 203.685 208.32 202.22 207.299 201.432H207.299V201.432Z" fill="white"/>
<path d="M395 264.442H-52V265.802H395V264.442Z" fill="#3F3D56"/>
</svg>
