<svg width="180" height="264" viewBox="0 0 180 264" fill="none" xmlns="http://www.w3.org/2000/svg">
<path d="M178.518 121.335C175.016 100.375 156.765 84.4022 134.777 84.4022H44.8561C22.8766 84.4022 4.62944 100.362 1.11493 121.31C0.709266 123.705 0.5 126.169 0.5 128.68V206.89C0.5 209.401 0.709266 211.861 1.11493 214.256C3.91203 230.945 16.0654 244.471 32.0109 249.276C36.0762 250.503 40.3893 251.164 44.8561 251.164H134.777C139.243 251.164 143.556 250.503 147.622 249.276C163.572 244.467 175.729 230.933 178.518 214.231C178.919 211.844 179.128 209.393 179.128 206.89V128.68C179.128 126.178 178.919 123.723 178.518 121.335ZM142.386 249.276C139.914 249.715 137.373 249.945 134.777 249.945H44.8561C42.2597 249.945 39.7188 249.715 37.2463 249.276C17.0561 245.69 1.72562 228.077 1.72562 206.89V180.93C1.72562 107.575 61.2926 85.6256 134.777 85.6256C158.597 85.6256 177.907 104.902 177.907 128.68V206.89C120.082 214.615 162.577 245.69 142.386 249.276Z" fill="#3F3D56"/>
<path d="M107.71 143.421L111.169 165.868L161.907 158.961L157.007 132.735L107.71 143.421Z" fill="#009EDD"/>
<path d="M147.53 17.4636H126.552V39.1398H147.53V17.4636Z" fill="#2F2E41"/>
<path d="M128.466 40.3963L133.655 24.8562H143.77L144.302 40.3963H128.466Z" fill="#FFB6B6"/>
<path opacity="0.1" d="M128.466 40.3963L133.655 24.8562H143.77L144.302 40.3963H128.466Z" fill="black"/>
<path d="M133.944 178.818L133.367 238.676L132.791 243.28V249.89L141.439 250.762L142.016 237.524C142.016 237.524 151.241 211.624 148.935 191.48C146.628 171.335 147.781 177.091 147.781 177.091L133.944 178.818Z" fill="#FFB6B6"/>
<path d="M139.434 183.518L118.157 239.484L117.017 243.983L114.608 250.14L106.234 247.812L110.521 235.272C110.521 235.272 111.366 207.796 120.856 189.869C130.345 171.942 127.173 176.885 127.173 176.885L139.434 183.518Z" fill="#FFB6B6"/>
<path d="M128.466 38.6696L112.899 45.5763L122.839 96.8078L121.268 170.338L110.89 192.21C110.89 192.21 109.151 204.718 127.025 196.66C144.899 188.602 165.078 186.3 165.078 186.3L160.178 152.63L155.853 64.2819L156.43 44.7129L143.745 36.6552L128.466 38.6696V38.6696Z" fill="#2F2E41"/>
<path d="M119.796 193.009L102.521 164.141L122.262 96.8078L112.899 45.5763L129.326 38.5563C129.326 38.5563 137.83 46.8227 137.83 53.641C137.83 60.4593 119.796 193.009 119.796 193.009Z" fill="#E6E6E6"/>
<path d="M157.273 187.253L141.592 52.7872C141.394 51.0893 141.684 49.3703 142.429 47.8311L146.916 38.5563L164.502 43.5618L157.433 98.5344L176.322 152.63L157.273 187.253H157.273Z" fill="#E6E6E6"/>
<path d="M143.169 249.611C143.169 249.611 132.214 243.28 131.061 246.733C129.908 250.187 129.331 253.064 129.331 253.064C129.331 253.064 126.448 264 135.097 264C143.745 264 143.169 259.026 143.169 259.026V249.611Z" fill="#2F2E41"/>
<path d="M105.042 246.111C105.042 246.111 117.554 244.192 117.369 247.828C117.185 251.463 116.673 254.353 116.673 254.353C116.673 254.353 115.374 265.586 107.318 262.446C99.2615 259.305 101.611 254.882 101.611 254.882L105.042 246.111Z" fill="#2F2E41"/>
<path d="M139.387 33.314C147.303 33.314 153.721 26.908 153.721 19.0057C153.721 11.1035 147.303 4.69742 139.387 4.69742C131.471 4.69742 125.053 11.1035 125.053 19.0057C125.053 26.908 131.471 33.314 139.387 33.314Z" fill="#FFB6B6"/>
<path d="M150.839 6.25495C150.171 2.72716 146.544 0.34103 142.96 0.0418153C139.376 -0.257399 135.865 1.09351 132.638 2.67741C130.45 3.7511 128.296 4.96128 126.524 6.63253C124.752 8.30378 123.375 10.487 123.057 12.8998C122.945 13.7535 122.959 14.6454 122.609 15.4324C122.172 16.4154 121.233 17.083 120.667 17.998C119.651 19.6389 120.118 22.0261 121.677 23.1651C119.717 23.9991 117.702 24.8691 116.208 26.3857C114.713 27.9022 113.85 30.2437 114.67 32.2072C114.961 32.9019 115.44 33.51 115.688 34.2207C116.159 35.5704 115.711 37.1038 114.876 38.2645C114.04 39.4253 112.861 40.286 111.703 41.1263C114.68 41.7087 117.718 42.1624 120.738 41.8907C123.759 41.6191 126.791 40.5623 128.978 38.4652C131.165 36.368 132.369 33.133 131.584 30.2086C130.983 27.9683 129.301 26.0053 129.302 23.686C129.303 21.9033 130.307 20.2951 131.277 18.798L137.63 8.9894C138.011 8.40127 138.413 7.79267 139.015 7.43295C140.039 6.82098 141.367 7.0901 142.447 7.59803C143.526 8.10597 144.512 8.83471 145.663 9.14965C148.013 9.79241 150.738 8.31631 151.479 5.99985" fill="#2F2E41"/>
<path d="M142.372 35.3537C141.177 36.5083 139.456 36.8802 137.861 37.3481C136.265 37.816 134.569 38.5518 133.851 40.0489C133.147 41.5168 133.658 43.3801 134.823 44.5181C135.989 45.656 137.682 46.1354 139.312 46.1128C140.942 46.0902 142.531 45.6133 144.064 45.0595C148.256 43.5453 152.226 41.4211 155.811 38.775C153.489 38.1338 151.97 35.4275 152.635 33.1161C153.175 31.2359 154.829 29.9245 155.954 28.3228C157.891 25.565 158.213 21.9298 157.572 18.6231C156.931 15.3164 155.42 12.2511 153.926 9.23138C153.454 8.2768 152.97 7.30607 152.233 6.53636C151.496 5.76667 150.453 5.21524 149.392 5.32551C147.631 5.50851 146.507 7.43774 146.495 9.20459C146.483 10.9714 147.26 12.632 147.849 14.2982C148.455 16.0148 148.877 17.8345 148.714 19.6476C148.578 21.167 148.024 22.647 147.13 23.8838C146.439 24.839 145.559 25.6406 144.808 26.5492C144.227 27.2517 143.712 28.0474 143.56 28.9454C143.282 30.5795 144.242 32.2329 143.979 33.8694C143.701 35.5993 141.877 36.9237 140.143 36.6556" fill="#2F2E41"/>
<path d="M98.5344 235.198C125.601 235.198 147.543 213.295 147.543 186.276C147.543 159.257 125.601 137.353 98.5344 137.353C71.4678 137.353 49.5259 159.257 49.5259 186.276C49.5259 213.295 71.4678 235.198 98.5344 235.198Z" fill="#009EDD"/>
<path d="M112.218 136.518C111.625 140.758 108.952 143.889 106.249 143.511C103.546 143.134 101.837 139.391 102.431 135.15C102.646 133.453 103.264 131.831 104.234 130.421L106.976 112.489L115.379 113.953L111.784 131.476C112.33 133.098 112.479 134.827 112.218 136.518Z" fill="#FFB6B6"/>
<path d="M119.529 44.713C119.529 44.713 110.881 41.8352 109.728 52.1952C108.574 62.5552 107.421 75.2175 107.421 75.2175C107.421 75.2175 102.232 87.3041 104.538 93.6353C106.845 99.9664 110.881 95.5523 106.845 100.925C102.809 106.298 103.371 123.974 103.371 123.974L116.358 123.322C116.358 123.322 123.565 75.793 123.565 74.6419C123.565 73.4908 119.529 44.7129 119.529 44.7129V44.713Z" fill="#E6E6E6"/>
<path d="M175.745 134.594C175.906 138.872 173.825 142.422 171.097 142.524C168.37 142.626 166.03 139.24 165.869 134.961C165.782 133.252 166.106 131.548 166.813 129.99L166.362 111.856L174.891 111.825L174.431 129.705C175.254 131.207 175.704 132.883 175.745 134.594V134.594Z" fill="#FFB6B6"/>
<path d="M162.431 44.5186C162.431 44.5186 171.129 41.7955 172.097 52.1744C173.064 62.5534 173.991 81.5653 173.991 81.5653C173.991 81.5653 178.963 93.7426 176.544 100.032C174.124 106.321 170.168 101.835 174.107 107.279C178.046 112.723 176.633 128.074 176.633 128.074L163.659 127.19C163.659 127.19 157.839 81.8528 157.86 80.7019C157.88 79.551 162.431 44.5186 162.431 44.5186V44.5186Z" fill="#E6E6E6"/>
<path d="M133.373 182.332H126.142C125.017 175.702 121.545 169.699 116.361 165.417C104.43 155.562 86.7695 157.246 76.9151 169.177C76.8815 169.215 76.8491 169.254 76.8182 169.294C76.0308 170.315 76.2199 171.78 77.2405 172.568C78.261 173.355 79.7268 173.166 80.5143 172.146C84.7951 166.959 91.2747 163.659 98.5197 163.659C109.612 163.66 119.172 171.464 121.394 182.332H115.017C114.745 182.332 114.481 182.427 114.271 182.602C113.776 183.015 113.709 183.75 114.121 184.246L123.299 195.263C123.344 195.317 123.394 195.367 123.448 195.412C123.943 195.824 124.679 195.758 125.091 195.263L134.269 184.246C134.444 184.036 134.539 183.772 134.54 183.499C134.54 182.855 134.017 182.332 133.373 182.332V182.332Z" fill="white"/>
<path d="M119.799 201.432C118.778 200.645 117.313 200.834 116.525 201.854C113.13 205.966 108.429 208.791 103.205 209.861C90.5711 212.447 78.2321 204.302 75.6453 191.668H82.0222C82.6667 191.668 83.189 191.145 83.1889 190.501C83.1887 190.228 83.093 189.964 82.9185 189.754L73.7406 178.737C73.3279 178.242 72.5919 178.175 72.097 178.588C72.0429 178.633 71.9931 178.683 71.9481 178.737L62.7702 189.754C62.3579 190.25 62.4249 190.985 62.9202 191.398C63.1298 191.573 63.3938 191.668 63.6667 191.668H70.8977C72.0228 198.298 75.4942 204.301 80.6786 208.583C92.6095 218.438 110.27 216.754 120.124 204.823C120.158 204.785 120.19 204.746 120.221 204.706C121.009 203.685 120.82 202.22 119.799 201.432H119.799V201.432Z" fill="white"/>
</svg>
