<svg width="12" height="13" viewBox="0 0 12 13" fill="none" xmlns="http://www.w3.org/2000/svg">
<path d="M5.76677 5.00001H6.9001V3.30001H8.6001V2.16667H6.9001V0.466675H5.76677V2.16667H4.06677V3.30001H5.76677V5.00001ZM3.5001 10.1C2.87676 10.1 2.37243 10.61 2.37243 11.2333C2.37243 11.8567 2.87676 12.3667 3.5001 12.3667C4.12343 12.3667 4.63343 11.8567 4.63343 11.2333C4.63343 10.61 4.12343 10.1 3.5001 10.1ZM9.16677 10.1C8.54343 10.1 8.0391 10.61 8.0391 11.2333C8.0391 11.8567 8.54343 12.3667 9.16677 12.3667C9.7901 12.3667 10.3001 11.8567 10.3001 11.2333C10.3001 10.61 9.7901 10.1 9.16677 10.1ZM3.59643 8.25834L3.61343 8.19034L4.12343 7.26668H8.3451C8.7701 7.26668 9.1441 7.03434 9.33677 6.68301L11.5241 2.71068L10.5381 2.16667H10.5324L9.9091 3.30001L8.3451 6.13334H4.3671L4.29343 5.98034L3.0241 3.30001L2.48576 2.16667L1.9531 1.03334H0.100098V2.16667H1.23343L3.27343 6.46768L2.50843 7.85601C2.41776 8.01468 2.36676 8.20168 2.36676 8.40001C2.36676 9.02334 2.87676 9.53334 3.5001 9.53334H10.3001V8.40001H3.7381C3.66443 8.40001 3.59643 8.33768 3.59643 8.25834Z" fill="white"/>
</svg>
